<?xml version="1.0" encoding="UTF-8"?>
<svg version="1.1" viewBox="0 0 24 24" xmlns="http://www.w3.org/2000/svg" xmlns:xlink="http://www.w3.org/1999/xlink">
    <!--Generated by IJSVG (https://github.com/curthard89/IJSVG)-->
    <g fill="none">
        <path d="M0,0h24v24h-24Z"></path>
        <path fill="#44484a" d="M16.21,6.98l-4.38,-6.56c-0.19,-0.28 -0.51,-0.42 -0.83,-0.42c-0.32,0 -0.64,0.14 -0.83,0.43l-4.38,6.55h-4.79c-0.55,8.88178e-16 -1,0.45 -1,1c0,0.09 0.01,0.18 0.04,0.27l2.54,9.27c0.23,0.84 1,1.46 1.92,1.46h13c0.92,0 1.69,-0.62 1.93,-1.46l2.54,-9.27l0.03,-0.27c0,-0.55 -0.45,-1 -1,-1h-4.79Zm-8.21,0l3,-4.4l3,4.4h-6Zm3,8c-1.1,0 -2,-0.9 -2,-2c0,-1.1 0.9,-2 2,-2c1.1,0 2,0.9 2,2c0,1.1 -0.9,2 -2,2Z" transform="translate(1, 2.02)"></path>
    </g>
</svg>