<?xml version="1.0" ?><!DOCTYPE svg  PUBLIC '-//W3C//DTD SVG 1.1//EN'  'http://www.w3.org/Graphics/SVG/1.1/DTD/svg11.dtd'><svg height="512px" id="icon_design" style="enable-background:new 0 0 512 512;" version="1.1" viewBox="0 0 512 512" width="512px" xml:space="preserve" xmlns="http://www.w3.org/2000/svg" xmlns:xlink="http://www.w3.org/1999/xlink"><style type="text/css"><![CDATA[
	.st0{fill:none;}
	.st1{fill:#ED8323;}
]]></style><g><g><path class="st1" d="M319.702,138.484c0-40.357-32.716-73.073-73.074-73.073c-40.356,0-73.073,32.716-73.073,73.073     c0,15.195,4.642,29.305,12.579,40.996c10.461-3.704,21.383-6.453,32.61-8.214l3.412-14.374c5.74,2.806,13.648,5.612,22.321,5.612     c6.505,0,10.969-1.786,10.969-5.867c0-3.954-3.699-6.377-13.265-9.311c-13.775-4.464-23.597-10.969-23.597-23.852     c0-11.607,8.036-20.791,22.576-23.724V88.016h14.541V98.73c8.801,0.382,14.795,2.168,19.26,4.082l-4.082,16.964     c-3.443-1.403-9.566-4.337-19.26-4.337c-7.525,0-9.821,2.679-9.821,5.485c0,3.188,4.337,5.612,15.051,9.438     c16.071,5.229,21.938,12.5,21.938,24.106c0,6.104-2.245,11.658-6.495,15.986c12.214,1.535,24.102,4.233,35.471,8.04     C315.304,166.998,319.702,153.258,319.702,138.484z"/></g><path class="st1" d="M436.919,287.762c-11.286,0-22.112-6.634-31.134-14.748c-9.514-8.557-17.02-18.757-20.938-24.561l5.828-7.843    l29.265-39.379c1.615-2.174,1.956-5.043,0.893-7.535c-1.062-2.492-3.368-4.232-6.056-4.571c-0.143-0.018-2.57-0.318-6.394-0.495    c-1.617-0.075-3.479-0.128-5.529-0.128c-0.788,0-1.591,0.01-2.399,0.026c-14.967,0.288-33.298,3.397-44.604,15.113    c-0.151,0.157-0.3,0.32-0.449,0.48c-1.431,1.537-2.749,3.209-3.92,5.047c-1.679,2.635-3.077,5.259-4.207,7.87    c-0.292,0.676-0.566,1.35-0.821,2.023c-2.853,7.516-3.422,14.907-1.672,22.072c0.012,0.048,0.026,0.094,0.038,0.142    c0.1,0.4,0.206,0.796,0.317,1.187c1.916,6.677,5.61,11.949,9.19,15.787c-0.01,0-0.02,0.002-0.029,0.002    c-1.301,0-2.615-0.333-3.812-1.026c-0.604-0.349-14.829-8.741-18.728-24.711c-0.194-0.795-0.35-1.594-0.487-2.395    c-1.114-6.502-0.352-13.178,2.271-19.954c-11.681-7.147-24.68-12.868-38.644-16.842c-14.597-4.155-30.24-6.409-46.511-6.409    c-17.25,0-33.792,2.537-49.132,7.184c-25.98,7.868-48.5,21.798-65.138,39.754c-2.254,2.434-4.398,4.941-6.431,7.518    c-0.004,0.006-0.009,0.012-0.014,0.018c-1.21-0.845-2.438-1.73-3.672-2.66c-3.304-2.465-6.887-5.412-10.272-8.732    c-1.337-1.312-2.646-2.68-3.891-4.103c-13.056-14.914-5.727-31.212-0.028-37.746c1.782-2.044,4.886-2.256,6.93-0.473    c2.04,1.778,2.255,4.871,0.486,6.915c-1.116,1.308-10.42,12.925,0.004,24.834c0.928,1.06,1.901,2.09,2.9,3.088    c0.991,0.99,2.009,1.946,3.037,2.867c6.288-5.225,11.354-11.981,14.477-19.196c2.326-5.374,3.576-11,3.449-16.434    c-0.266-11.384-6.457-20.388-16.985-24.7c-9.843-4.032-20.265-2.508-28.594,4.184c-11.339,9.108-17.586,26.925-15.947,44.515    c-9.813-1.502-15.553-8.037-17.845-16.059c-1.004-3.514-4.518-4.016-6.526,0.334c-3.517,7.617-8.83,25.581,11.195,36.693    c6.607,3.667,14.825,3.937,22.859,3.417c3.288,4.446,7.149,8.526,11.128,12.17c4.913,4.499,10.003,8.327,14.426,11.344    c-7.113,14.335-11.047,30.059-11.047,46.555c0,25.264,9.215,48.722,24.976,68.144l-4.916,21.438l-6.17,26.911    c-2.647,15.015,7.302,29.275,25.787,31.981l24.968,3.212c13.801,1.058,27.162-5.87,31.185-18.799    c0.326-1.048,0.598-2.13,0.796-3.255l3.142-14.306c14.125,3.862,29.202,5.958,44.864,5.958c14.445,0,28.391-1.784,41.553-5.09    l2.951,13.438c0.25,1.417,0.609,2.781,1.066,4.09c4.387,12.547,17.827,19.852,30.914,17.964l24.969-3.212    c19.422-3.177,28.434-16.967,25.786-31.981l-5.524-24.091l-2.367-10.328c8.61-7.309,16.998-15.013,27.062-21.262    c9.763-6.062,21.103-10.752,35.774-12.363c11.654-1.754,18.342-6.617,20.703-20.705l3.162-32.109    C455.295,290.756,447.404,287.762,436.919,287.762z M392.996,306.873c-2.048,1.871-4.765,3.021-7.757,3.021    c-4.528,0-8.436-2.621-10.316-6.422c-0.761-1.538-1.2-3.263-1.2-5.095c0-0.999,0.141-1.962,0.379-2.886    c1.283-4.961,5.777-8.63,11.138-8.63c2.144,0,4.144,0.596,5.862,1.616c3.381,2.007,5.654,5.684,5.654,9.9    C396.756,301.746,395.301,304.767,392.996,306.873z"/><rect class="st0" height="512" width="512"/></g></svg>