<?xml version="1.0" ?><svg enable-background="new 0 0 360 360" id="Layer_1" version="1.1" viewBox="0 0 360 360" xml:space="preserve" xmlns="http://www.w3.org/2000/svg" xmlns:xlink="http://www.w3.org/1999/xlink"><g><path d="M102.625,282.325c-0.578-3.615-1.152-7.235-1.726-10.851h0.005c-0.963-6.052-1.925-12.11-2.876-18.161   c-0.277-1.744-0.509-3.502-0.856-5.221c-0.106-0.479-0.234-0.942-0.381-1.382c-0.006-0.014-0.008-0.039-0.014-0.054   c-0.848-2.814-2.976-4.846-5.628-5.945c-0.743-0.322-1.175-0.502-2.354-0.865c-0.937-0.271-1.899-0.478-2.875-0.609   c-0.022,0-0.634-0.033-1.571-0.076c-2.734,2.2-6.205,3.454-9.769,3.514h-0.299c-3.576-0.06-7.035-1.315-9.769-3.514   c-0.948,0.044-1.563,0.076-1.563,0.076c-0.997,0.12-1.954,0.339-2.886,0.609c-1.18,0.363-1.601,0.543-2.345,0.865   c-2.661,1.099-4.787,3.132-5.64,5.945c0,0.012,0,0.027,0,0.04c-0.166,0.453-0.294,0.904-0.384,1.396   c-0.362,1.719-0.587,3.476-0.858,5.221c-1.539,9.68-3.074,19.335-4.604,29.013c-0.4,2.46-0.851,4.915-1.18,7.381   c-0.37,2.702,1.274,5.078,3.815,5.649c2.509,0.569,4.968-0.955,5.769-3.577c0.144-0.465,0.238-0.959,0.356-1.44   c1.593-6.794,3.191-13.94,4.789-20.431h0.31c0.063,1.164,0.218,1.824,0.18,2.715c-0.464,11.437-0.952,22.889-1.444,34.34   c-0.157,3.526-0.353,7.054-0.516,10.585c-0.267,6.086-0.593,12.171-0.789,18.258c-0.092,3.245,2.104,5.626,5.096,5.805   c3.061,0.172,5.36-1.821,5.836-5.066c0.373-2.47,0.736-4.937,1.085-7.404c1.639-11.517,3.253-23.033,4.885-34.561   c0,0.014,0.011,0.014,0.011,0.027c0-0.013,0-0.013,0-0.027c1.633,11.528,3.249,23.044,4.893,34.561   c0.348,2.467,0.712,4.934,1.079,7.404c0.471,3.246,2.775,5.248,5.839,5.066c2.995-0.18,5.197-2.56,5.093-5.805   c-0.191-6.087-0.517-12.172-0.781-18.258c-0.172-3.531-0.367-7.059-0.516-10.585c-0.497-11.451-0.987-22.903-1.449-34.34   c-0.044-0.891,0.127-1.551,0.177-2.715h0.316c1.345,5.428,2.669,11.347,4.012,17.114c0,0,0-0.016,0-0.018   c0.258,1.127,0.516,2.228,0.788,3.326c0.103,0.489,0.201,0.983,0.345,1.448c0.805,2.622,3.259,4.146,5.768,3.577   c2.526-0.57,4.168-2.947,3.805-5.649C103.468,287.24,103.014,284.785,102.625,282.325z" fill="#ED8323"/><path d="M74.424,236.833c6.428,0,11.631-5.194,11.631-11.63c0-6.423-5.204-11.631-11.631-11.631   c-6.425,0-11.634,5.208-11.634,11.631C62.79,231.639,68,236.833,74.424,236.833z" fill="#ED8323"/><path d="M240.972,282.325c-0.577-3.615-1.152-7.235-1.726-10.851h0.005c-0.964-6.052-1.926-12.11-2.876-18.161   c-0.277-1.744-0.509-3.502-0.856-5.221c-0.106-0.479-0.234-0.942-0.381-1.382c-0.006-0.014-0.008-0.039-0.014-0.054   c-0.848-2.814-2.976-4.846-5.627-5.945c-0.744-0.322-1.176-0.502-2.354-0.865c-0.937-0.271-1.898-0.478-2.875-0.609   c-0.022,0-0.635-0.033-1.571-0.077c-2.734,2.2-6.205,3.454-9.769,3.514h-0.299c-3.576-0.06-7.035-1.315-9.769-3.514   c-0.948,0.044-1.563,0.077-1.563,0.077c-0.997,0.119-1.954,0.338-2.886,0.609c-1.18,0.363-1.601,0.543-2.345,0.865   c-2.661,1.099-4.787,3.132-5.64,5.945c0,0.012,0,0.027,0,0.04c-0.166,0.453-0.294,0.904-0.384,1.396   c-0.362,1.719-0.587,3.476-0.857,5.221c-1.539,9.68-3.074,19.335-4.604,29.013c-0.4,2.46-0.851,4.915-1.18,7.381   c-0.37,2.702,1.273,5.078,3.814,5.649c2.509,0.569,4.968-0.955,5.77-3.577c0.144-0.465,0.237-0.959,0.356-1.44   c1.593-6.794,3.191-13.94,4.789-20.431h0.31c0.063,1.164,0.218,1.824,0.181,2.715c-0.464,11.437-0.953,22.889-1.445,34.34   c-0.157,3.526-0.353,7.054-0.516,10.585c-0.267,6.086-0.593,12.171-0.79,18.258c-0.092,3.245,2.104,5.626,5.096,5.805   c3.061,0.172,5.36-1.821,5.836-5.066c0.374-2.47,0.736-4.937,1.085-7.404c1.639-11.517,3.253-23.033,4.885-34.561   c0,0.014,0.011,0.014,0.011,0.027c0-0.013,0-0.013,0-0.027c1.633,11.528,3.249,23.044,4.893,34.561   c0.348,2.467,0.712,4.934,1.079,7.404c0.471,3.246,2.775,5.248,5.839,5.066c2.995-0.18,5.197-2.56,5.093-5.805   c-0.191-6.087-0.517-12.172-0.781-18.258c-0.172-3.531-0.367-7.059-0.516-10.585c-0.497-11.451-0.987-22.903-1.449-34.34   c-0.044-0.891,0.127-1.551,0.177-2.715h0.316c1.345,5.428,2.669,11.347,4.012,17.114c0,0,0-0.016,0-0.018   c0.258,1.127,0.516,2.228,0.788,3.326c0.103,0.489,0.201,0.983,0.345,1.448c0.805,2.622,3.259,4.146,5.768,3.577   c2.527-0.57,4.169-2.947,3.805-5.649C241.815,287.24,241.361,284.785,240.972,282.325z" fill="#ED8323"/><path d="M201.137,225.204c0,6.436,5.21,11.63,11.635,11.63c6.428,0,11.631-5.194,11.631-11.63   c0-6.423-5.203-11.631-11.631-11.631C206.347,213.572,201.137,218.78,201.137,225.204z" fill="#ED8323"/><path d="M171.798,238.229c-0.578-3.615-1.152-7.235-1.726-10.851h0.005c-0.963-6.052-1.925-12.11-2.876-18.161   c-0.277-1.744-0.51-3.502-0.856-5.221c-0.106-0.479-0.234-0.942-0.381-1.382c-0.006-0.014-0.008-0.039-0.014-0.054   c-0.848-2.814-2.976-4.846-5.627-5.945c-0.744-0.322-1.176-0.502-2.354-0.865c-0.937-0.271-1.898-0.478-2.875-0.609   c-0.022,0-0.635-0.033-1.571-0.077c-2.734,2.2-6.205,3.454-9.769,3.514h-0.299c-3.576-0.06-7.035-1.315-9.769-3.514   c-0.948,0.043-1.563,0.077-1.563,0.077c-0.997,0.119-1.954,0.338-2.886,0.609c-1.18,0.363-1.601,0.543-2.345,0.865   c-2.661,1.099-4.787,3.132-5.64,5.945c0,0.012,0,0.027,0,0.04c-0.166,0.453-0.294,0.904-0.384,1.396   c-0.362,1.719-0.587,3.476-0.858,5.221c-1.539,9.68-3.074,19.335-4.604,29.013c-0.4,2.46-0.851,4.915-1.18,7.381   c-0.37,2.702,1.274,5.078,3.814,5.649c2.509,0.569,4.968-0.955,5.77-3.577c0.144-0.465,0.238-0.959,0.356-1.44   c1.593-6.794,3.191-13.94,4.789-20.431h0.31c0.063,1.164,0.218,1.824,0.18,2.715c-0.464,11.437-0.952,22.889-1.445,34.34   c-0.156,3.526-0.353,7.054-0.516,10.585c-0.267,6.086-0.593,12.171-0.789,18.258c-0.092,3.246,2.104,5.626,5.096,5.805   c3.061,0.172,5.36-1.821,5.836-5.066c0.374-2.47,0.736-4.937,1.085-7.404c1.639-11.517,3.253-23.033,4.885-34.561   c0,0.014,0.011,0.014,0.011,0.027c0-0.013,0-0.013,0-0.027c1.632,11.528,3.249,23.044,4.893,34.561   c0.348,2.467,0.712,4.934,1.079,7.404c0.471,3.246,2.775,5.248,5.839,5.066c2.995-0.18,5.197-2.56,5.093-5.805   c-0.191-6.087-0.517-12.172-0.781-18.258c-0.172-3.531-0.367-7.059-0.516-10.585c-0.497-11.451-0.987-22.903-1.449-34.34   c-0.044-0.891,0.127-1.551,0.177-2.715h0.316c1.345,5.428,2.669,11.347,4.012,17.114c0,0,0-0.016,0-0.018   c0.258,1.127,0.516,2.228,0.788,3.326c0.103,0.489,0.201,0.983,0.345,1.448c0.805,2.622,3.259,4.146,5.768,3.577   c2.526-0.57,4.168-2.947,3.805-5.649C172.642,243.144,172.187,240.689,171.798,238.229z" fill="#ED8323"/><path d="M143.598,192.737c6.428,0,11.631-5.194,11.631-11.63c0-6.423-5.204-11.631-11.631-11.631   c-6.425,0-11.635,5.208-11.635,11.631C131.963,187.543,137.173,192.737,143.598,192.737z" fill="#ED8323"/><path d="M310.145,282.325c-0.578-3.615-1.152-7.235-1.726-10.851h0.005c-0.963-6.052-1.925-12.11-2.876-18.161   c-0.277-1.744-0.509-3.502-0.856-5.221c-0.106-0.479-0.234-0.942-0.381-1.382c-0.006-0.014-0.008-0.039-0.014-0.054   c-0.848-2.814-2.976-4.846-5.628-5.945c-0.743-0.322-1.175-0.502-2.354-0.865c-0.937-0.271-1.899-0.478-2.875-0.609   c-0.022,0-0.634-0.033-1.571-0.076c-2.734,2.2-6.205,3.454-9.769,3.514h-0.299c-3.576-0.06-7.035-1.315-9.769-3.514   c-0.948,0.044-1.563,0.076-1.563,0.076c-0.997,0.12-1.954,0.339-2.886,0.609c-1.18,0.363-1.601,0.543-2.345,0.865   c-2.661,1.099-4.787,3.132-5.64,5.945c0,0.012,0,0.027,0,0.04c-0.166,0.453-0.294,0.904-0.384,1.396   c-0.362,1.719-0.587,3.476-0.858,5.221c-1.539,9.68-3.074,19.335-4.604,29.013c-0.4,2.46-0.851,4.915-1.18,7.381   c-0.37,2.702,1.274,5.078,3.815,5.649c2.509,0.569,4.968-0.955,5.77-3.577c0.144-0.465,0.237-0.959,0.356-1.44   c1.593-6.794,3.191-13.94,4.789-20.431h0.31c0.063,1.164,0.218,1.824,0.18,2.715c-0.464,11.437-0.952,22.889-1.444,34.34   c-0.157,3.526-0.353,7.054-0.516,10.585c-0.267,6.086-0.593,12.171-0.789,18.258c-0.092,3.245,2.104,5.626,5.096,5.805   c3.061,0.172,5.36-1.821,5.836-5.066c0.374-2.47,0.736-4.937,1.085-7.404c1.639-11.517,3.253-23.033,4.885-34.561   c0,0.014,0.011,0.014,0.011,0.027c0-0.013,0-0.013,0-0.027c1.633,11.528,3.249,23.044,4.893,34.561   c0.348,2.467,0.712,4.934,1.079,7.404c0.471,3.246,2.775,5.248,5.839,5.066c2.995-0.18,5.197-2.56,5.093-5.805   c-0.191-6.087-0.517-12.172-0.781-18.258c-0.172-3.531-0.367-7.059-0.516-10.585c-0.497-11.451-0.987-22.903-1.449-34.34   c-0.044-0.891,0.127-1.551,0.177-2.715h0.316c1.345,5.428,2.669,11.347,4.012,17.114c0,0,0-0.016,0-0.018   c0.258,1.127,0.516,2.228,0.788,3.326c0.103,0.489,0.201,0.983,0.345,1.448c0.805,2.622,3.259,4.146,5.768,3.577   c2.526-0.57,4.169-2.947,3.805-5.649C310.988,287.24,310.534,284.785,310.145,282.325z" fill="#ED8323"/><path d="M281.945,236.833c6.428,0,11.631-5.194,11.631-11.63c0-6.423-5.203-11.631-11.631-11.631   c-6.425,0-11.634,5.208-11.634,11.631C270.31,231.639,275.52,236.833,281.945,236.833z" fill="#ED8323"/><path d="M206.167,139.938l32.682-13.848c6.538-2.77,12.683-6.391,18.274-10.768l10.62-8.314l-10.399-62.937   l-50.869-2.811c-3.528-0.195-7.032-0.706-10.469-1.528l-26.573-6.35l-38.193-14.394c-4.885-1.842-10.335,0.626-12.174,5.509   c-1.584,4.203,0.029,8.82,3.62,11.2l-34.731-7.213c-5.833-1.213-11.557,2.538-12.768,8.378c-1.213,5.839,2.538,11.557,8.378,12.768   l36.2,7.518l-5.873,0.455L74.995,68.636c-5.977,1.695-9.447,7.915-7.752,13.892c1.404,4.95,5.913,8.182,10.817,8.182   c1.016,0,2.049-0.139,3.075-0.43l36.734-10.418l26.868-2.08l-2.209,1.708c-9.319,7.207-14.679,18.541-14.339,30.318l1.155,39.842   c0.217,7.452,6.457,13.328,13.885,13.102c1.033-0.03,2.031-0.187,2.991-0.435l5.867-14.596l-0.917,14.867   c2.328,1.714,5.143,2.646,8.017,2.646c2.242,0,4.515-0.56,6.609-1.737c5.818-3.275,11.371-6.376,16.924-9.476   c5.606-3.129,11.211-6.259,17.083-9.564C202.097,143.163,204.226,141.643,206.167,139.938z M190.909,116.017   c-0.739,2.005-2.283,3.748-4.348,4.911c-5.845,3.289-11.423,6.404-17.003,9.519c-4.468,2.495-8.937,4.99-13.542,7.575l-0.84-28.996   c-0.092-3.178,1.354-6.236,3.871-8.183l7.843-6.067c2.776-2.147,6.201-3.297,9.676-3.297c0.827,0,1.658,0.066,2.483,0.198   c4.091,0.657,7.586,2.86,9.848,6.21c0.139,0.205,0.274,0.414,0.418,0.648C192.465,103.638,193.062,110.174,190.909,116.017z" fill="#ED8323"/><path d="M314.935,107.184L302.396,31.3c-0.39-2.359-2.432-4.033-4.747-4.033c-0.261,0-0.526,0.021-0.791,0.065   l-27.523,4.548c-2.625,0.434-4.402,2.914-3.968,5.539l12.539,75.883c0.39,2.359,2.432,4.033,4.748,4.033   c0.261,0,0.525-0.022,0.791-0.065l27.523-4.548C313.592,112.289,315.369,109.809,314.935,107.184z M294.476,104.279   c-3.479,0-6.299-2.821-6.299-6.299c0-3.479,2.82-6.299,6.299-6.299c3.479,0,6.299,2.821,6.299,6.299   C300.775,101.458,297.955,104.279,294.476,104.279z" fill="#ED8323"/></g></svg>