<?xml version="1.0" encoding="UTF-8" standalone="no"?>
<!DOCTYPE svg PUBLIC "-//W3C//DTD SVG 1.1//EN" "http://www.w3.org/Graphics/SVG/1.1/DTD/svg11.dtd">
<svg width="100%" height="100%" viewBox="0 0 43 43" version="1.1" xmlns="http://www.w3.org/2000/svg" xmlns:xlink="http://www.w3.org/1999/xlink" xml:space="preserve" xmlns:serif="http://www.serif.com/" style="fill-rule:evenodd;clip-rule:evenodd;stroke-miterlimit:10;">
    <g id="Artboard1" transform="matrix(0.523118,0,0,0.523118,0,0)">
        <rect x="0" y="0" width="82.2" height="82.2" style="fill:none;"/>
        <g transform="matrix(1.91162,0,0,-1.91162,0.955808,81.2437)">
            <clipPath id="_clip1">
                <path d="M3,42L39,42C40.657,42 42,40.657 42,39L42,3C42,1.343 40.657,0 39,0L3,0C1.343,0 0,1.343 0,3L0,39C0,40.657 1.343,42 3,42Z"/>
            </clipPath>
            <g clip-path="url(#_clip1)">
                <path d="M3,42L39,42C40.657,42 42,40.657 42,39L42,3C42,1.343 40.657,0 39,0L3,0C1.343,0 0,1.343 0,3L0,39C0,40.657 1.343,42 3,42Z" style="fill:none;stroke:rgb(171,174,176);stroke-width:4px;"/>
            </g>
        </g>
        <g transform="matrix(1.91162,0,0,-1.91162,14.3371,16.2487)">
            <g id="Trim">
                <path d="M0,1L28.004,1" style="fill:none;stroke:rgb(171,174,176);stroke-width:2px;stroke-linecap:round;stroke-linejoin:round;"/>
            </g>
        </g>
    </g>
</svg>
