<?xml version="1.0" encoding="UTF-8"?>
<svg version="1.1" viewBox="0 0 24 24" xmlns="http://www.w3.org/2000/svg" xmlns:xlink="http://www.w3.org/1999/xlink">
    <!--Generated by IJSVG (https://github.com/curthard89/IJSVG)-->
    <g fill="#44484a">
        <path d="M12.5,11h-0.79l-0.28,-0.27c0.98,-1.14 1.57,-2.62 1.57,-4.23c0,-3.59 -2.91,-6.5 -6.5,-6.5c-3.59,0 -6.5,2.91 -6.5,6.5c0,3.59 2.91,6.5 6.5,6.5c1.61,0 3.09,-0.59 4.23,-1.57l0.27,0.28v0.79l5,4.99l1.49,-1.49l-4.99,-5Zm-6,0c-2.49,0 -4.5,-2.01 -4.5,-4.5c0,-2.49 2.01,-4.5 4.5,-4.5c2.49,0 4.5,2.01 4.5,4.5c0,2.49 -2.01,4.5 -4.5,4.5Z" transform="translate(3, 3)"></path>
        <path fill="none" d="M0,0h24v24h-24Z"></path>
    </g>
</svg>