<?xml version="1.0" encoding="UTF-8"?>
<svg version="1.1" viewBox="0 0 24 24" xmlns="http://www.w3.org/2000/svg" xmlns:xlink="http://www.w3.org/1999/xlink">
    <!--Generated by IJSVG (https://github.com/curthard89/IJSVG)-->
    <g fill="none">
        <path d="M0,0h24v24h-24Z"></path>
        <path fill="#2354a1" d="M15,14.08c-0.76,0 -1.44,0.3 -1.96,0.77l-7.13,-4.15c0.05,-0.23 0.09,-0.46 0.09,-0.7c0,-0.24 -0.04,-0.47 -0.09,-0.7l7.05,-4.11c0.54,0.5 1.25,0.81 2.04,0.81c1.66,0 3,-1.34 3,-3c0,-1.66 -1.34,-3 -3,-3c-1.66,0 -3,1.34 -3,3c0,0.24 0.04,0.47 0.09,0.7l-7.05,4.11c-0.54,-0.5 -1.25,-0.81 -2.04,-0.81c-1.66,0 -3,1.34 -3,3c0,1.66 1.34,3 3,3c0.79,0 1.5,-0.31 2.04,-0.81l7.12,4.16c-0.05,0.21 -0.08,0.43 -0.08,0.65c0,1.61 1.31,2.92 2.92,2.92c1.61,0 2.92,-1.31 2.92,-2.92c0,-1.61 -1.31,-2.92 -2.92,-2.92Z" transform="translate(3, 2)"></path>
    </g>
</svg>