<?xml version="1.0" encoding="UTF-8"?>
<svg version="1.1" viewBox="0 0 24 24" xmlns="http://www.w3.org/2000/svg" xmlns:xlink="http://www.w3.org/1999/xlink">
    <!--Generated by IJSVG (https://github.com/curthard89/IJSVG)-->
    <g fill="#787B7D">
        <path d="M8,3v-3l-4,4l4,4v-3c3.31,0 6,2.69 6,6c0,1.01 -0.25,1.97 -0.7,2.8l1.46,1.46c0.78,-1.23 1.24,-2.69 1.24,-4.26c0,-4.42 -3.58,-8 -8,-8Zm0,14c-3.31,0 -6,-2.69 -6,-6c0,-1.01 0.25,-1.97 0.7,-2.8l-1.46,-1.46c-0.78,1.23 -1.24,2.69 -1.24,4.26c0,4.42 3.58,8 8,8v3l4,-4l-4,-4v3Z" transform="translate(4, 1)"></path>
        <path fill="none" d="M0,0h24v24h-24Z"></path>
    </g>
</svg>