<?xml version="1.0" encoding="UTF-8" standalone="no"?>
<!DOCTYPE svg PUBLIC "-//W3C//DTD SVG 1.1//EN" "http://www.w3.org/Graphics/SVG/1.1/DTD/svg11.dtd">
<svg width="100%" height="100%" viewBox="0 0 201 200" version="1.1" xmlns="http://www.w3.org/2000/svg" xmlns:xlink="http://www.w3.org/1999/xlink" xml:space="preserve" xmlns:serif="http://www.serif.com/" style="fill-rule:evenodd;clip-rule:evenodd;stroke-linejoin:round;stroke-miterlimit:1.41421;">
    <g id="XMLID_136_" transform="matrix(1,0,0,1,0.101843,0.0112722)">
        <ellipse id="XMLID_146_" cx="164.5" cy="99.9" rx="35.5" ry="35.6" style="fill:rgb(243,119,33);"/>
        <path id="XMLID_138_" d="M135.5,165.3C136,145.5 119.9,128.9 100.1,128.9C95.7,128.9 91.5,129.7 87.7,131.1C82.7,133 77,131.6 73.2,127.8L72.2,126.8C68.3,122.9 67.2,117.2 69,112C70.3,108.2 71.1,104.2 71.1,100C71.1,95.8 70.4,91.7 69,88C67.1,82.8 68.3,77.1 72.2,73.2L73.2,72.2C77,68.4 82.6,67 87.7,68.9C91.6,70.3 95.8,71.1 100.1,71.1C119.9,71 136,54.4 135.5,34.7C135.1,15.7 119.8,0.5 100.9,0C81.1,-0.5 64.5,15.7 64.4,35.4C64.4,39.8 65.2,44 66.6,47.8C68.5,52.8 67.1,58.5 63.3,62.3L62.3,63.3C58.5,67.1 52.9,68.5 47.8,66.6C43.9,65.2 39.8,64.4 35.4,64.4C15.8,64.4 -0.3,80.8 -0.1,100.4C0.2,119.8 16,135.5 35.4,135.5C39.6,135.5 43.7,134.8 47.4,133.4C52.6,131.5 58.3,132.7 62.2,136.6L63.2,137.6C67,141.4 68.4,147 66.5,152.1C65.1,156 64.3,160.2 64.3,164.5C64.4,184.3 81,200.4 100.7,199.9C119.8,199.5 135.1,184.3 135.5,165.3Z" style="fill:url(#_Linear1);fill-rule:nonzero;"/>
    </g>
    <defs>
        <linearGradient id="_Linear1" x1="0" y1="0" x2="1" y2="0" gradientUnits="userSpaceOnUse" gradientTransform="matrix(1.22465e-14,-200,200,1.22465e-14,67.7632,200)"><stop offset="0" style="stop-color:rgb(241,107,49);stop-opacity:1"/><stop offset="1" style="stop-color:rgb(250,181,89);stop-opacity:1"/></linearGradient>
    </defs>
</svg>
