<?xml version="1.0" encoding="UTF-8" standalone="no"?>
<!DOCTYPE svg PUBLIC "-//W3C//DTD SVG 1.1//EN" "http://www.w3.org/Graphics/SVG/1.1/DTD/svg11.dtd">
<svg width="100%" height="100%" viewBox="0 0 958 958" version="1.1" xmlns="http://www.w3.org/2000/svg" xmlns:xlink="http://www.w3.org/1999/xlink" xml:space="preserve" xmlns:serif="http://www.serif.com/" style="fill-rule:evenodd;clip-rule:evenodd;stroke-linejoin:round;stroke-miterlimit:1.41421;">
    <g transform="matrix(4.16667,0,0,4.16667,666.752,605.244)">
        <path d="M0,-59.267C-4.216,-55.051 -7.285,-50.134 -9.272,-44.895C-9.498,-44.051 -9.791,-43.213 -10.144,-42.402C-14.436,-28.413 -11.066,-12.583 -0.001,-1.518C15.946,14.43 41.805,14.437 57.754,-1.513C73.702,-17.46 73.699,-43.323 57.752,-59.271C46.687,-70.336 30.854,-73.704 16.868,-69.414C16.051,-69.054 15.217,-68.766 14.369,-68.536C9.132,-66.551 4.219,-63.486 0,-59.267" style="fill:rgb(242,244,245);fill-rule:nonzero;"/>
    </g>
    <g transform="matrix(0,957.226,957.226,0,324.39,-0.000654167)">
        <path d="M0.052,0.035C0.1,-0.013 0.169,-0.027 0.23,-0.009C0.234,-0.007 0.237,-0.006 0.241,-0.005C0.266,0.002 0.294,-0.005 0.314,-0.025C0.334,-0.044 0.341,-0.073 0.334,-0.098C0.333,-0.102 0.332,-0.105 0.33,-0.109C0.311,-0.17 0.326,-0.239 0.374,-0.287C0.444,-0.356 0.556,-0.356 0.626,-0.287C0.677,-0.236 0.69,-0.161 0.666,-0.098L0.666,-0.098C0.659,-0.073 0.666,-0.044 0.686,-0.025C0.706,-0.005 0.734,0.002 0.759,-0.005C0.763,-0.006 0.766,-0.007 0.77,-0.009C0.831,-0.027 0.9,-0.013 0.948,0.035C1.017,0.105 1.017,0.217 0.948,0.287C0.879,0.356 0.766,0.356 0.697,0.287C0.648,0.239 0.634,0.17 0.652,0.109C0.654,0.105 0.655,0.102 0.656,0.098C0.663,0.073 0.656,0.044 0.637,0.025C0.617,0.005 0.589,-0.002 0.564,0.005C0.527,0.019 0.486,0.02 0.448,0.009C0.444,0.007 0.441,0.006 0.437,0.005C0.412,-0.002 0.383,0.005 0.363,0.025C0.344,0.044 0.337,0.073 0.344,0.098C0.345,0.102 0.346,0.105 0.348,0.109C0.366,0.17 0.352,0.239 0.303,0.287C0.234,0.356 0.121,0.356 0.052,0.287C0.017,0.252 0,0.207 0,0.161C0,0.116 0.017,0.07 0.052,0.035ZM0.638,-0.05C0.639,-0.05 0.639,-0.051 0.64,-0.052C0.639,-0.051 0.639,-0.05 0.638,-0.05ZM0.649,-0.065C0.65,-0.065 0.65,-0.066 0.65,-0.066C0.65,-0.066 0.65,-0.065 0.649,-0.065Z" style="fill:rgb(242,244,245);fill-rule:nonzero;"/>
    </g>
</svg>
