<?xml version="1.0" encoding="utf-8"?>
<!-- Generator: Adobe Illustrator 19.0.0, SVG Export Plug-In . SVG Version: 6.00 Build 0)  -->
<svg version="1.1" id="Layer_1" xmlns="http://www.w3.org/2000/svg" xmlns:xlink="http://www.w3.org/1999/xlink" x="0px" y="0px"
	 viewBox="0 0 875.1 200" style="enable-background:new 0 0 875.1 200;" xml:space="preserve">
<style type="text/css">
	.st0{fill:#F37721;}
	.st1{fill:#46494B;}
</style>
<g id="XMLID_54_">
	<g id="XMLID_136_">
		<ellipse id="XMLID_146_" class="st0" cx="164.5" cy="99.9" rx="35.5" ry="35.6"/>
		<g id="XMLID_137_">
			<defs>
				<path id="XMLID_138_" d="M135.5,165.3c0.5-19.8-15.6-36.4-35.4-36.4c-4.4,0-8.6,0.8-12.4,2.2c-5,1.9-10.7,0.5-14.5-3.3l-1-1
					c-3.9-3.9-5-9.6-3.2-14.8c1.3-3.8,2.1-7.8,2.1-12c0-4.2-0.7-8.3-2.1-12c-1.9-5.2-0.7-10.9,3.2-14.8l1-1
					c3.8-3.8,9.4-5.2,14.5-3.3c3.9,1.4,8.1,2.2,12.4,2.2c19.8-0.1,35.9-16.7,35.4-36.4C135.1,15.7,119.8,0.5,100.9,0
					C81.1-0.5,64.5,15.7,64.4,35.4c0,4.4,0.8,8.6,2.2,12.4c1.9,5,0.5,10.7-3.3,14.5l-1,1c-3.8,3.8-9.4,5.2-14.5,3.3
					c-3.9-1.4-8-2.2-12.4-2.2c-19.6,0-35.7,16.4-35.5,36c0.3,19.4,16.1,35.1,35.5,35.1c4.2,0,8.3-0.7,12-2.1
					c5.2-1.9,10.9-0.7,14.8,3.2l1,1c3.8,3.8,5.2,9.4,3.3,14.5c-1.4,3.9-2.2,8.1-2.2,12.4c0.1,19.8,16.7,35.9,36.4,35.4
					C119.8,199.5,135.1,184.3,135.5,165.3z"/>
			</defs>
			<linearGradient id="XMLID_28_" gradientUnits="userSpaceOnUse" x1="67.7632" y1="200" x2="67.7632" y2="-1.448825e-09">
				<stop  offset="0" style="stop-color:#F16B31"/>
				<stop  offset="1" style="stop-color:#FAB559"/>
			</linearGradient>
			<use xlink:href="#XMLID_138_"  style="overflow:visible;fill:url(#XMLID_28_);"/>
			<clipPath id="XMLID_29_">
				<use xlink:href="#XMLID_138_"  style="overflow:visible;"/>
			</clipPath>
		</g>
	</g>
	<g id="XMLID_58_">
		<path id="XMLID_132_" class="st1" d="M287.6,48.8c-30.1,0-48.6,21.8-48.6,56.9c0,33.6,18.3,54.2,48,54.2c23.5,0,42.5-13.2,48.6-34
			h-20c-3.6,0-7.2,1.6-9.3,4.6c-3.9,5.5-10.4,8.6-18.3,8.6c-7.8,0-14-3.3-17.9-9.1c-2.5-3.9-3.5-8.5-3.9-18.5h70.3
			c0.2-2.3,0.2-3.3,0.2-4.7c0-10.5-1.6-20.2-4.1-27.6C325.7,60.3,308.8,48.8,287.6,48.8z M266.6,93.5c1.7-16.1,8.5-23.9,20.6-23.9
			c12.4,0,19.8,8.4,21.2,23.9H266.6z"/>
		<path id="XMLID_131_" class="st1" d="M408.2,58.7l-18.9,68.6l-22.7-76.7h-28.7l36.7,104.9h28.6l36.1-104.9h-20.3
			C413.9,50.6,409.6,53.9,408.2,58.7z"/>
		<path id="XMLID_128_" class="st1" d="M489.9,48.8c-30.1,0-48.6,21.8-48.6,56.9c0,33.6,18.3,54.2,48,54.2c23.5,0,42.5-13.2,48.6-34
			h-20c-3.6,0-7.2,1.6-9.3,4.6c-3.9,5.5-10.4,8.6-18.3,8.6c-7.8,0-14-3.3-17.9-9.1c-2.5-3.9-3.5-8.5-3.9-18.5h70.3
			c0.2-2.3,0.2-3.3,0.2-4.7c0-10.5-1.6-20.2-4.1-27.6C527.9,60.3,511.1,48.8,489.9,48.8z M468.9,93.5c1.7-16.1,8.5-23.9,20.6-23.9
			c12.4,0,19.8,8.4,21.2,23.9H468.9z"/>
		<path id="XMLID_125_" class="st1" d="M823.1,48.8c-32,0-51.7,21.2-51.7,55.5c0,34.6,19.6,55.5,51.9,55.5c32,0,51.9-21,51.9-54.8
			C875.1,69.6,855.9,48.8,823.1,48.8z M823.2,138c-14.8,0-24.7-13.4-24.7-33.6c0-20.2,9.9-33.6,24.7-33.6c15,0,24.7,13.4,24.7,34
			C847.9,124.4,837.8,138,823.2,138z"/>
		<path id="XMLID_101_" class="st1" d="M741.7,20.3c-6.1,0-11,4.9-11,11v32.8c-6.3-9.7-14.5-14.6-26.2-15.3c-0.9,0-1.8-0.1-2.7-0.1
			c-10.8,0-20.4,4.5-28,12.1c-9.9,10-16.1,25.5-16.1,43.5l0,0l0,1.5c0.2,12.3,2.9,22.9,7.6,31.3c7.8,13.8,21.4,21.8,39.3,22.7
			c1,0,2.1,0.1,3.2,0.1c8.6,0,16.3-1.6,22.9-4.7c17.2-8,27.2-25.7,27.2-50.1V20.3H741.7z M707.8,137.2c-13.6,0-22.9-13.4-22.9-32.6
			c0-19.6,9.3-33,22.9-33c13.8,0,22.9,13.2,22.9,33.4C730.7,124,721.4,137.2,707.8,137.2z"/>
		<path id="XMLID_100_" class="st1" d="M598.4,48.8c-27.6,0-44.5,17.1-44.5,45v61.6h27.2V93.9c0-13.4,7-22.3,17.5-22.3
			c10.5,0,17.4,8.8,17.4,22.3c0,0.1,0,0.2,0,0.3v50.3c0,6.1,4.9,11,11,11h16.2v-61C643.3,65.7,626.7,48.8,598.4,48.8z"/>
	</g>
</g>
</svg>
