
<svg viewBox="0 0 117 91" xmlns="http://www.w3.org/2000/svg" fill-rule="evenodd" clip-rule="evenodd" stroke-linejoin="round" stroke-miterlimit="1.414">
  <g fill-rule="nonzero">
    <path d="M98.352 89.383v.235h.217c.048 0 .088-.01.117-.03.03-.018.045-.048.045-.09 0-.037-.015-.066-.045-.086-.03-.02-.07-.03-.118-.03h-.218zm.22-.165c.112 0 .2.025.26.075.062.05.093.12.093.206 0 .072-.025.133-.073.18-.05.047-.12.076-.21.087l.29.333h-.226l-.268-.33h-.086v.33h-.19v-.882h.41zm-.057 1.185c.103 0 .198-.02.286-.058.09-.04.168-.092.234-.16.067-.065.12-.144.158-.234.038-.09.057-.185.057-.288 0-.102-.02-.198-.058-.288-.04-.09-.09-.17-.158-.236-.066-.066-.144-.12-.233-.157-.087-.037-.182-.056-.285-.056-.104 0-.2.02-.292.057-.09.04-.17.092-.237.158-.066.067-.12.146-.157.236-.04.09-.058.186-.058.288 0 .103.02.2.057.29.037.09.09.168.156.234.067.067.146.12.237.16.09.037.188.057.292.057m0-1.69c.134 0 .26.024.376.074.118.05.22.117.308.204.088.087.157.188.208.303.05.116.075.24.075.37s-.024.253-.074.367c-.05.115-.12.216-.208.302-.087.086-.19.154-.307.205-.116.05-.24.076-.375.076-.137 0-.264-.026-.383-.076-.12-.05-.222-.12-.31-.205-.086-.086-.154-.187-.205-.302-.05-.114-.075-.237-.075-.368 0-.13.025-.253.075-.37.05-.114.12-.215.206-.3.087-.088.19-.155.31-.205.118-.05.245-.075.382-.075m-14.38-8.396c.42 0 1.02.08 1.48.26l-.64 1.957c-.44-.18-.88-.24-1.3-.24-1.357 0-2.036.88-2.036 2.457v5.352H79.56v-9.546h2.058v1.158c.538-.84 1.318-1.398 2.516-1.398m-7.188 2.137h-3.395v4.314c0 .958.34 1.598 1.378 1.598.54 0 1.22-.18 1.838-.54l.6 1.778c-.66.46-1.698.74-2.597.74-2.456 0-3.314-1.32-3.314-3.536v-4.354H69.52v-1.897h1.936V77.66h2.096v2.896h3.396v1.897zm-9.98.54c-.58-.36-1.758-.82-2.976-.82-1.14 0-1.817.42-1.817 1.12 0 .638.72.818 1.617.937l.98.14c2.076.3 3.334 1.178 3.334 2.856 0 1.817-1.598 3.116-4.354 3.116-1.557 0-2.995-.4-4.134-1.24l.98-1.616c.698.54 1.736.998 3.174.998 1.418 0 2.177-.42 2.177-1.158 0-.54-.54-.84-1.678-1l-.98-.138c-2.136-.3-3.294-1.26-3.294-2.816 0-1.898 1.557-3.056 3.974-3.056 1.518 0 2.896.34 3.894 1l-.898 1.676zM51.11 84.49c.22-1.378 1.06-2.317 2.537-2.317 1.338 0 2.197.84 2.417 2.317H51.11zm7.11.84c-.02-2.977-1.857-5.014-4.533-5.014-2.796 0-4.753 2.037-4.753 5.013 0 3.035 2.037 5.012 4.893 5.012 1.438 0 2.756-.36 3.914-1.338l-1.017-1.538c-.8.64-1.818.998-2.776.998-1.338 0-2.556-.62-2.856-2.336h7.09c.02-.26.04-.52.04-.8m33.142-3.06c-.426 0-.82.075-1.186.225-.366.15-.682.36-.947.628-.267.27-.477.593-.63.968-.153.375-.23.79-.23 1.24 0 .453.077.867.23 1.242.153.375.363.698.63.967.264.27.58.478.946.628.365.15.76.224 1.186.224.425 0 .82-.075 1.186-.225.365-.15.683-.36.952-.628.27-.27.48-.592.633-.967.153-.375.23-.79.23-1.24 0-.453-.077-.867-.23-1.242-.153-.375-.364-.698-.633-.967-.27-.268-.587-.477-.952-.627-.365-.15-.76-.224-1.186-.224m0-1.965c.737 0 1.42.128 2.048.384.628.255 1.17.607 1.63 1.055.458.45.817.98 1.076 1.59.26.612.39 1.276.39 1.994 0 .717-.13 1.38-.39 1.992-.26.612-.618 1.142-1.076 1.59-.46.45-1.002.8-1.63 1.057-.628.255-1.31.383-2.048.383s-1.42-.128-2.05-.384c-.627-.257-1.17-.61-1.624-1.057-.455-.45-.812-.98-1.07-1.59-.26-.612-.39-1.276-.39-1.994 0-.72.13-1.383.39-1.995.258-.61.615-1.14 1.07-1.59.455-.448.997-.8 1.625-1.056.628-.257 1.31-.385 2.05-.385M39.19 85.33c0-1.68 1.098-3.057 2.896-3.057 1.717 0 2.876 1.318 2.876 3.056 0 1.736-1.16 3.054-2.876 3.054-1.798 0-2.896-1.378-2.896-3.055m7.73 0v-4.774H44.84v1.158c-.66-.86-1.658-1.398-3.016-1.398-2.676 0-4.773 2.097-4.773 5.013 0 2.915 2.097 5.012 4.773 5.012 1.358 0 2.357-.54 3.016-1.398v1.158h2.077V85.33zM35.215 90.1v-5.99c0-2.258-1.438-3.776-3.755-3.796-1.217-.02-2.475.36-3.354 1.698-.66-1.06-1.697-1.698-3.155-1.698-1.018 0-2.016.3-2.795 1.418v-1.178h-2.077v9.546h2.097V84.81c0-1.658.918-2.537 2.336-2.537 1.38 0 2.078.9 2.078 2.517v5.312h2.097V84.81c0-1.658.96-2.537 2.337-2.537 1.418 0 2.097.9 2.097 2.517v5.312h2.096z"/>
    <path fill="#7673C0" d="M42.494 7.697h31.5v56.606h-31.5z"/>
    <path d="M44.495 36c0-11.484 5.377-21.71 13.75-28.303C52.12 2.877 44.395 0 35.997 0 16.117 0 0 16.118 0 36s16.116 36 35.997 36c8.398 0 16.124-2.876 22.248-7.697-8.373-6.592-13.75-16.82-13.75-28.303" fill="#EB001B"/>
    <path d="M115.366 58.308V56.91H115l-.418.962-.42-.96h-.365v1.396h.257v-1.054l.394.91h.267l.394-.912v1.056h.256zm-2.31 0v-1.16h.467v-.235h-1.19v.236h.467v1.158h.255zM116.49 36c0 19.882-16.117 36-35.997 36-8.398 0-16.125-2.876-22.248-7.697 8.373-6.592 13.75-16.82 13.75-28.303 0-11.484-5.377-21.71-13.75-28.303C64.368 2.877 72.095 0 80.493 0c19.88 0 35.997 16.118 35.997 36" fill="#00A1DF"/>
  </g>
</svg>
