<svg viewBox="0 0 900 575" xmlns="http://www.w3.org/2000/svg" fill-rule="evenodd" clip-rule="evenodd" stroke-linejoin="round" stroke-miterlimit="1.414">
  <g fill-rule="nonzero">
    <path fill="#fff" d="M0 3.292h900V575H0z"/>
    <path fill="#FCB315" d="M14.988 482.105h870.01v78H14.987z"/>
    <path fill="#0D357F" d="M14.988 18.288h870.01v78H14.987zM442.488 182.225l-45.86 214.396h-55.465l45.862-214.395h55.463zm233.35 138.438l29.2-80.513 16.796 80.513h-45.996zm61.917 75.958h51.283L744.23 182.226h-47.31c-10.665 0-19.65 6.183-23.628 15.717l-83.23 198.68h58.255L659.88 364.6h71.15l6.725 32.02zm-144.8-69.995c.24-56.58-78.217-59.716-77.696-84.996.17-7.684 7.495-15.867 23.52-17.96 7.94-1.024 29.858-1.85 54.704 9.597l9.716-45.484c-13.35-4.825-30.52-9.475-51.883-9.475-54.833 0-93.408 29.125-93.717 70.867-.35 30.867 27.56 48.075 48.538 58.354 21.63 10.508 28.88 17.25 28.775 26.637-.15 14.383-17.254 20.75-33.17 20.992-27.905.432-44.076-7.543-56.968-13.55l-10.066 47c12.978 5.94 36.9 11.11 61.66 11.378 58.293 0 96.414-28.788 96.585-73.363zm-229.72-144.4L273.362 396.62h-58.625l-44.23-171.103c-2.68-10.52-5.016-14.388-13.17-18.834-13.338-7.245-35.36-14.02-54.717-18.237l1.31-6.22h94.383c12.02 0 22.837 8 25.587 21.845l23.363 124.072 57.7-145.917h58.27z"/>
  </g>
</svg>
