<svg viewBox="0 0 900 575" xmlns="http://www.w3.org/2000/svg" fill-rule="evenodd" clip-rule="evenodd" stroke-linejoin="round" stroke-miterlimit="1.414">
  <g fill-rule="nonzero">
    <path fill="#fff" d="M0 3.3h899.992V575H0z"/>
    <path fill="#FCB315" d="M14.983 482.1H884.98v78.01H14.983z"/>
    <path fill="#0D357F" d="M14.983 18.3H884.98v77.996H14.983zM432.692 166.72l-43.604 203.822h-52.73l43.6-203.82h52.734zm221.834 131.61l27.766-76.542 15.95 76.54h-43.716zm58.862 72.212h48.754l-42.596-203.82h-44.98c-10.15 0-18.674 5.886-22.457 14.945l-79.122 188.875h55.375l10.98-30.442H707l6.388 30.442zm-137.654-66.546c.22-53.783-74.367-56.767-73.88-80.8.18-7.304 7.138-15.083 22.37-17.07 7.547-.976 28.393-1.755 52.006 9.124l9.237-43.246c-12.687-4.587-29.012-9-49.32-9-52.13 0-88.8 27.684-89.092 67.363-.342 29.35 26.19 45.708 46.145 55.483 20.555 9.984 27.446 16.4 27.355 25.32-.15 13.676-16.417 19.73-31.542 19.955-26.52.42-41.896-7.166-54.158-12.88l-9.57 44.68c12.336 5.654 35.074 10.567 58.628 10.817 55.412 0 91.658-27.37 91.82-69.746zM357.338 166.72l-85.434 203.822H216.16l-42.043-162.667c-2.55-9.996-4.763-13.675-12.52-17.9-12.68-6.887-33.618-13.33-52.026-17.337l1.247-5.917h89.737c11.42 0 21.705 7.605 24.313 20.772l22.217 117.954 54.85-138.725h55.404zM500.18 426.646h-21.425v19.942h23.966v5.992h-31.186v-55.32h29.958v5.994h-22.737v17.48h21.425v5.912zM513.792 394.304h7.22v58.276h-7.22zM560.4 428.86c.084-4.514-1.887-11.655-10.012-11.655-7.388 0-10.508 6.65-11.08 11.654H560.4zm-21.175 5.17c.163 9.77 6.32 13.79 13.625 13.79 5.17 0 8.37-.903 11-2.053l1.313 5.175c-2.546 1.146-6.975 2.542-13.3 2.542-12.225 0-19.53-8.125-19.53-20.11 0-11.982 7.055-21.34 18.63-21.34 13.05 0 16.417 11.325 16.417 18.63 0 1.478-.084 2.545-.25 3.366h-27.905zM606.68 451.184c-1.892.904-6.075 2.3-11.413 2.3-11.983 0-19.78-8.125-19.78-20.275 0-12.23 8.372-21.176 21.338-21.176 4.27 0 8.046 1.066 10.017 2.137l-1.642 5.497c-1.725-.904-4.433-1.887-8.375-1.887-9.108 0-14.033 6.808-14.033 15.02 0 9.192 5.908 14.86 13.792 14.86 4.1 0 6.808-.99 8.862-1.893l1.234 5.417zM626.938 403.334v9.52h10.338v5.5h-10.338v21.42c0 4.93 1.396 7.714 5.417 7.714 1.966 0 3.12-.163 4.187-.492l.33 5.504c-1.396.492-3.617.984-6.405.984-3.366 0-6.075-1.15-7.8-3.038-1.967-2.216-2.787-5.74-2.787-10.425v-21.665h-6.16v-5.5h6.16v-7.388l7.058-2.133zM647.363 425.25c0-4.68-.083-8.7-.33-12.396h6.322l.33 7.88h.24c1.81-5.334 6.238-8.7 11.084-8.7.736 0 1.31.083 1.97.162v6.817c-.742-.167-1.475-.167-2.467-.167-5.083 0-8.696 3.775-9.683 9.196-.163.983-.242 2.213-.242 3.363v21.175h-7.225v-27.33zM679.938 432.8c0 8.7 4.92 15.267 11.983 15.267 6.897 0 12.064-6.483 12.064-15.433 0-6.73-3.367-15.184-11.9-15.184-8.454 0-12.146 7.88-12.146 15.35zm31.433-.412c0 14.692-10.257 21.096-19.782 21.096-10.667 0-19.037-7.884-19.037-20.438 0-13.216 8.784-21.012 19.7-21.012 11.41 0 19.12 8.287 19.12 20.354zM722.442 423.605c0-4.18-.087-7.463-.33-10.75h6.4l.41 6.57h.162c1.975-3.696 6.57-7.39 13.137-7.39 5.497 0 14.035 3.282 14.035 16.903v23.642h-7.22v-22.9c0-6.4-2.384-11.738-9.193-11.738-4.683 0-8.375 3.367-9.687 7.388-.33.904-.492 2.133-.492 3.366v23.884h-7.22v-28.975z"/>
  </g>
</svg>
